{"title":"El tiempo entre costuras S01e13.DVB-T.X264.ARI Gr Subs","uid":13850396,"size":406065437,"categoryP":"video","categoryS":"tv_shows","magnet":"?xt=urn:btih:6604489e339731166596179b461695e1f289a04f&amp;dn=El+tiempo+entre+costuras+S01e13.DVB-T.X264.ARI+Gr+Subs&amp;tr=udp%3A%2F%2Ftracker.leechers-paradise.org%3A6969&amp;tr=udp%3A%2F%2Fzer0day.ch%3A1337&amp;tr=udp%3A%2F%2Fopen.demonii.com%3A1337&amp;tr=udp%3A%2F%2Ftracker.coppersurfer.tk%3A6969&amp;tr=udp%3A%2F%2Fexodus.desync.com%3A6969","seeders":0,"leechers":1,"uploader":"Aris2015","files":1,"time":1457986876,"description":"Î— Ï€Î¿Î»Ï…Î²ÏÎ±Î²ÎµÏ…Î¼Î­Î½Î· Î±Ï…Ï„Î® ÏƒÎµÎ¹ÏÎ¬ 17 ÎµÏ€ÎµÎ¹ÏƒÎ¿Î´Î¯Ï‰Î½, Ï€Î±ÏÎ±Î³Ï‰Î³Î®Ï‚ Î™ÏƒÏ€Î±Î½Î¯Î±Ï‚ 2013-2014, ÎµÎ¯Î½Î±Î¹ Î­Î½Î± Î´ÏÎ¬Î¼Î± ÎµÏ€Î¿Ï‡Î®Ï‚, \r\nÏ€Î¿Ï… Ï€ÏÎ¿ÏƒÎµÎ»ÎºÏÎµÎ¹ Ï€ÎµÏÎ¹ÏƒÏƒÏŒÏ„ÎµÏÎ± Î±Ï€ÏŒ 5 ÎµÎºÎ±Ï„Î¿Î¼Î¼ÏÏÎ¹Î± Ï„Î·Î»ÎµÎ¸ÎµÎ±Ï„Î­Ï‚ Î±Î½Î¬ ÎµÏ€ÎµÎ¹ÏƒÏŒÎ´Î¹Î¿, ÏƒÏ„Î·Î½ Î™ÏƒÏ€Î±Î½Î¹ÎºÎ® Î¤Î·Î»ÎµÏŒÏÎ±ÏƒÎ· ÎºÎ±Î¹ Î²Î±ÏƒÎ¯Î¶ÎµÏ„Î±Î¹ \r\nÏƒÏ„Î¿ Î¿Î¼ÏŽÎ½Ï…Î¼Î¿ Î¼Ï€ÎµÏƒÏ„ ÏƒÎ­Î»ÎµÏ Ï„Î·Ï‚ ÎœÎ±ÏÎ¯Î± ÎÏ„Î¿Ï…Î­Î½Î¹Î±Ï‚. Î— ÏƒÎµÎ¹ÏÎ¬ Î­Ï‡ÎµÎ¹ Î³Ï…ÏÎ¹ÏƒÏ„ÎµÎ¯ ÏƒÏ„Î·Î½ Î™ÏƒÏ€Î±Î½Î¯Î±, ÏƒÏ„Î¿ ÎœÎ±ÏÏŒÎºÎ¿ ÎºÎ±Î¹ ÏƒÏ„Î·Î½ Î Î¿ÏÏ„Î¿Î³Î±Î»Î¯Î±, \r\nÎµÎ½ÏŽ Î¿ Ï€ÏÎ¿Ï‹Ï€Î¿Î»Î¿Î³Î¹ÏƒÎ¼ÏŒÏ‚ Ï„Î¿Ï… ÎºÎ¬Î¸Îµ ÎµÏ€ÎµÎ¹ÏƒÎ¿Î´Î¯Î¿Ï… Î¾ÎµÏ€ÎµÏÎ½Î¬ Ï„Î¿ Î¼Î¹ÏƒÏŒ ÎµÎºÎ±Ï„Î¿Î¼Î¼ÏÏÎ¹Î¿ ÎµÏ…ÏÏŽ. Î— ÏƒÎµÎ¹ÏÎ¬ Î¼ÎµÏ„Î±Î´Î¯Î´ÎµÏ„Î±Î¹ ÏƒÏ„Î·Î½ Î™Ï„Î±Î»Î¯Î±, \r\nÏ„Î· Î“Î±Î»Î»Î¯Î±, Ï„Î·Î½ Î Î¿ÏÏ„Î¿Î³Î±Î»Î¯Î±, Ï„Î·Î½ Î™Î±Ï€Ï‰Î½Î¯Î±, Ï„Î·Î½ ÎšÎ¯Î½Î±, Ï„Î·Î½ Î¤Î±ÏŠÎ²Î¬Î½, Ï„Î·Î½ ÎŸÏ…Î³Î³Î±ÏÎ¯Î±, ÏƒÎµ ÏŒÎ»ÎµÏ‚ Ï„Î¹Ï‚ Ï‡ÏŽÏÎµÏ‚ Ï„Ï‰Î½ Î’Î±Î»ÎºÎ±Î½Î¯Ï‰Î½, \r\nÎºÎ±Î¸ÏŽÏ‚ ÎºÎ±Î¹ ÏƒÏ„Î¿Î½ ÎšÎ±Î½Î±Î´Î¬ ÎºÎ±Î¹ ÏƒÏ„Î¹Ï‚ Î—Î Î‘, ÏŒÏ€Ï‰Ï‚ ÎºÎ±Î¹ ÏƒÎµ Ï€Î¿Î»Î»Î­Ï‚ Ï‡ÏŽÏÎµÏ‚ Ï„Î·Ï‚ Î›Î±Ï„Î¹Î½Î¹ÎºÎ®Ï‚ Î‘Î¼ÎµÏÎ¹ÎºÎ®Ï‚.\r\n\r\n\r\nGeneral \r\nComplete name :El tiempo entre costuras S01e13.DVB-T.X264.ARI.mp4 \r\nFormat : MPEG-4 \r\nFormat profile : Base Media \r\nCodec ID : isom (isom/iso2/avc1/mp41) \r\nFile size : 387 MiB \r\nDuration : 47mn 44s \r\nOverall bit rate mode : Variable \r\nOverall bit rate : 1 134 Kbps \r\nMovie name : El tiempo entre costuras S01e12.DVB-T.X264.ARI \r\nPerformer : ARI \r\nGenre : Adventure, Drama, Romance \r\nRecorded date : 2013 \r\nEncoded date : UTC 2016-03-13 21:55:44 \r\nTagged date : UTC 2016-03-13 21:55:44 \r\nWriting application : Lavf57.26.100 \r\n\r\nVideo \r\nID : 1 \r\nFormat : AVC \r\nFormat/Info : Advanced Video Codec \r\nFormat profile :    \r\nFormat settings, CABAC : Yes \r\nFormat settings, ReFrames : 16 frames \r\nCodec ID : avc1 \r\nCodec ID/Info : Advanced Video Coding \r\nDuration : 47mn 44s \r\nBit rate mode : Variable \r\nBit rate : 1 000 Kbps \r\nMaximum bit rate : 17.5 Mbps \r\nWidth : 720 pixels \r\nHeight : 404 pixels \r\nDisplay aspect ratio : 16:9 \r\nOriginal display aspect rat : 16:9 \r\nFrame rate mode : Constant \r\nFrame rate : 25.000 fps \r\nColor space : YUV \r\nChroma subsampling : 4:2:0 \r\nBit depth : 8 bits \r\nScan type : Progressive \r\nBits/(Pixel*Frame) : 0.138 \r\nStream size : 342 MiB (88%) \r\nWriting library : x264 core 148 r2665 \r\nLanguage : Spanish \r\n\r\n\r\nAudio \r\nID : 2 \r\nFormat : AAC \r\nFormat/Info : Advanced Audio Codec \r\nFormat profile : LC \r\nCodec ID : 40 \r\nDuration : 47mn 44s \r\nDuration_LastFrame : -8ms \r\nBit rate mode : Constant \r\nBit rate : 128 Kbps \r\nChannel(s) : 2 channels \r\nChannel positions : Front: L R \r\nSampling rate : 48.0 KHz \r\nFrame rate : 46.875 fps (1024 spf) \r\nCompression mode : Lossy \r\nStream size : 43.7 MiB (11%) \r\nLanguage : Spanish \r\nDefault : Yes","torrent":{"xt":"urn:btih:6604489e339731166596179b461695e1f289a04f","amp;dn":"El+tiempo+entre+costuras+S01e13.DVB-T.X264.ARI+Gr+Subs","amp;tr":["udp%3A%2F%2Ftracker.leechers-paradise.org%3A6969","udp%3A%2F%2Fzer0day.ch%3A1337","udp%3A%2F%2Fopen.demonii.com%3A1337","udp%3A%2F%2Ftracker.coppersurfer.tk%3A6969","udp%3A%2F%2Fexodus.desync.com%3A6969"],"infoHash":"6604489e339731166596179b461695e1f289a04f","infoHashBuffer":{"type":"Buffer","data":[102,4,72,158,51,151,49,22,101,150,23,155,70,22,149,225,242,137,160,79]},"announce":[],"urlList":[]}}